# xmcd CD database file
#
# Track frame offsets:
#	150
#	21105
#	43035
#	65270
#	87436
#	110864
#	131021
#	159015
#	180024
#	196538
#	223394
#	244770
#	268677
#	290657
#	311767
#
# Disc length: 4439 seconds
#
# Revision: 3
# Processed by: cddbd v1.5PL3 Copyright (c) Steve Scherf et al.
# Submitted via: CDex 1.50
#
DISCID=d411550f
DTITLE=Lix - Reflex
DYEAR=2003
DGENRE=Techno
TTITLE0=Nano East -303 Logic mix-
TTITLE1=Besessenheit -F.N.8080 mix-
TTITLE2=Streamside -Eden of Abyss-
TTITLE3=The Airship Blackjack -Pure Sine mix-
TTITLE4=AG4 -F.Revival 2nd mix-
TTITLE5=時の回廊 -BF.Light mix-
TTITLE6=Theme of Tina -D.T. mix-
TTITLE7=Samurai Discotheque -L.Destination mix-
TTITLE8=Ice Ridge of Noltia -Lunatical Dance mix-
TTITLE9=Be Nice'n Easy -Aquic Pulse mix-
TTITLE10=Mythos Path -150 SysTrance mix-
TTITLE11=封印の地 -Core Divide mix-
TTITLE12=Labyrinth -Black Trance mix-
TTITLE13=TM2G -Chaotic Energy mix-
TTITLE14=Decision Bell -N.R. mix-
EXTD=YEAR: 2003
EXTT0=
EXTT1=
EXTT2=
EXTT3=
EXTT4=
EXTT5=
EXTT6=
EXTT7=
EXTT8=
EXTT9=
EXTT10=
EXTT11=
EXTT12=
EXTT13=
EXTT14=
PLAYORDER=
